<svg width="121" height="23" viewBox="0 0 121 23" fill="none" xmlns="http://www.w3.org/2000/svg">
<g clip-path="url(#clip0_525_217)">
<path d="M0.0276489 1.13916H6.77445C9.53953 1.13916 11.5857 1.51888 12.9129 2.25119C14.2402 2.9835 15.4845 4.20402 16.5628 5.80426C17.6412 7.40449 18.1666 9.46581 18.1666 11.934C18.1666 15.026 17.2265 17.6297 15.3739 19.7182C13.4936 21.8066 10.9221 22.8373 7.63162 22.8373H0.0276489V1.13916ZM5.1154 5.15331V18.7689H7.24451C9.12477 18.7689 10.535 18.0908 11.4474 16.7076C12.3599 15.3243 12.83 13.6969 12.83 11.8255C12.83 10.5236 12.5811 9.30308 12.0558 8.19105C11.5304 7.07902 10.8944 6.29246 10.1202 5.83138C9.34598 5.37029 8.3782 5.15331 7.29982 5.15331H5.1154Z" fill="#0E556B"/>
<path d="M109.077 1.13916V22.8373H104.652L100.422 15.6498L95.9978 8.19105C95.9978 8.57076 96.0254 8.81487 96.0254 8.92336C96.0807 9.30308 96.0807 9.60143 96.0807 9.87265V22.8644H92.0437V1.16628H97.6292L105.15 13.9682C105.095 13.3444 105.04 12.8561 105.04 12.5307V1.13916H109.077Z" fill="#0E556B"/>
<path d="M112.948 1.13916V22.8373H108.524L99.8689 8.19105C99.8689 8.57076 99.8965 8.81487 99.8965 8.92336C99.9518 9.30308 99.9518 9.60143 99.9518 9.87265V22.8644H95.9148V1.16628H101.5L109.021 13.9682C108.966 13.3444 108.911 12.8561 108.911 12.5307V1.13916H112.948Z" fill="#52C3E6"/>
<path d="M3.92639 1.13916H10.6732C13.4383 1.13916 15.4844 1.51888 16.8117 2.25119C18.1389 2.9835 19.3832 4.20402 20.4616 5.80426C21.54 7.40449 22.0653 9.46581 22.0653 11.934C22.0653 15.026 21.1252 17.6297 19.2726 19.7182C17.3923 21.8066 14.8208 22.8373 11.5304 22.8373H3.92639V1.13916ZM9.01414 5.15331V18.7689H11.1433C13.0235 18.7689 14.4337 18.0908 15.3462 16.7076C16.2587 15.3243 16.7287 13.6969 16.7287 11.8255C16.7287 10.5236 16.4799 9.30308 15.9545 8.19105C15.4291 7.07902 14.7932 6.29246 14.0189 5.83138C13.2447 5.37029 12.2769 5.15331 11.1986 5.15331H9.01414Z" fill="#50BBDD"/>
<path d="M94.8641 6.45515L101.528 17.5212L104.238 15.5684L95.7766 1.19336L94.8641 6.45515Z" fill="#0E556B"/>
<path d="M46.4476 5.74994L42.0511 7.18744C41.4705 5.47871 40.1985 4.61079 38.2906 4.61079C36.2445 4.61079 35.2214 5.26173 35.2214 6.56362C35.2214 7.07895 35.4149 7.51291 35.802 7.89263C36.1892 8.27235 37.0463 8.5707 38.4012 8.84192C40.6409 9.27588 42.3 9.73697 43.3507 10.1981C44.4014 10.6591 45.2863 11.3915 46.0052 12.395C46.7241 13.3985 47.0836 14.5377 47.0836 15.7853C47.0836 17.7381 46.3094 19.4469 44.7886 20.8573C43.2401 22.2948 40.9727 22.9999 37.9588 22.9999C35.6914 22.9999 33.7559 22.4846 32.1798 21.4811C30.576 20.4775 29.5253 18.9587 29.0276 16.9787L33.8112 15.9209C34.3642 17.9551 35.8573 18.9587 38.3183 18.9587C39.5073 18.9587 40.3921 18.7417 40.9727 18.2806C41.5534 17.8195 41.8576 17.3042 41.8576 16.6804C41.8576 16.0565 41.5811 15.5412 41.0557 15.2157C40.5303 14.8631 39.5073 14.5377 37.9865 14.2393C35.1661 13.6698 33.1752 12.8832 31.9586 11.9068C30.7696 10.9032 30.1613 9.46574 30.1613 7.56716C30.1613 5.64145 30.8802 4.01409 32.318 2.68508C33.7559 1.35607 35.6914 0.705129 38.1247 0.705129C42.4106 0.650884 45.2033 2.33249 46.4476 5.74994Z" fill="#0E556B"/>
<path d="M49.185 5.09906L44.7886 6.53656C44.2079 4.82783 42.9359 3.95991 41.028 3.95991C38.9819 3.95991 37.9588 4.61085 37.9588 5.91274C37.9588 6.42807 38.1524 6.86203 38.5395 7.24175C38.9266 7.59434 39.7838 7.91981 41.1386 8.19104C43.3784 8.625 45.0374 9.08609 46.0881 9.54717C47.1389 10.0083 48.0237 10.7406 48.7426 11.7441C49.4615 12.7476 49.821 13.8868 49.821 15.1344C49.821 17.0873 49.0468 18.796 47.526 20.2064C45.9775 21.6439 43.7102 22.3491 40.6962 22.3491C38.4289 22.3491 36.4933 21.8337 34.9172 20.8302C33.3411 19.8267 32.2627 18.3078 31.765 16.3278L36.5486 15.27C37.074 17.3042 38.5948 18.3078 41.0557 18.3078C42.2447 18.3078 43.1295 18.0908 43.7102 17.6297C44.2908 17.1686 44.595 16.6533 44.595 16.0295C44.595 15.4057 44.3185 14.8903 43.7931 14.5649C43.1848 14.1851 42.1617 13.8597 40.6686 13.5613C37.8482 12.9917 35.8573 12.2052 34.6407 11.2288C33.4241 10.2524 32.8434 8.78774 32.8434 6.88915C32.8434 4.96344 33.5623 3.33609 35.0002 2.00708C36.438 0.678066 38.3459 0 40.8068 0C45.148 0 47.9407 1.70873 49.185 5.09906Z" fill="#52C3E6"/>
<path d="M41.7194 17.0872C41.7194 17.0872 41.4982 18.1721 40.088 18.6603C38.6778 19.1485 36.8252 18.7959 36.3551 18.6332C35.8851 18.4704 34.2813 17.9009 33.7836 15.8667L29 16.9245C29 16.9245 29.4148 19.4197 31.7098 21.1285C34.0048 22.8372 37.8759 23.461 41.6364 22.4846C42.7701 22.1862 43.6826 21.698 44.3739 21.1827C44.5674 21.02 45.5905 20.2334 46.2818 18.9315C46.5306 18.4976 46.6412 18.145 46.6965 18.0094C46.973 17.1957 46.973 16.5719 46.973 16.4091C46.973 16.1108 46.9454 15.8396 46.9177 15.6768C46.8624 15.5141 46.7242 15.2429 46.4753 15.0259C46.1988 14.7818 45.9223 14.6733 45.7288 14.619C45.1204 14.4292 43.8208 14.1579 42.1065 13.8867C41.6364 14.2393 41.1664 14.5919 40.6963 14.9445C40.641 14.9445 42.3 15.6768 41.7194 17.0872Z" fill="#0E556B"/>
<path d="M3.87112 17.9552V18.9859C6.99566 19.0672 9.29068 18.4977 9.98195 18.0366C10.0926 17.9552 10.7838 17.4941 11.088 17.0873C11.1156 17.033 11.641 16.3821 11.641 16.355C12.747 16.6262 13.8531 16.8974 14.9591 17.1415C14.6549 17.6026 14.2125 18.1451 13.6042 18.7147C13.0512 19.2571 12.5811 19.5826 12.0834 19.9352C11.6686 20.2606 11.0327 20.6946 10.1479 21.1557C9.37363 21.5625 8.73766 21.8066 8.18464 22.0236C7.68693 22.2135 7.18921 22.4033 6.52559 22.5661C6.38734 22.5932 5.69607 22.8644 4.70064 22.8373C3.12454 22.8373 1.54845 22.8102 0 22.8102V17.9552H3.87112Z" fill="#0E556B"/>
<path d="M60.083 1.13916H66.8298C69.5949 1.13916 71.6411 1.51888 72.9683 2.25119C74.2955 2.9835 75.5398 4.1769 76.5906 5.80426C77.6413 7.43161 78.1943 9.46581 78.1943 11.934C78.1943 15.026 77.2542 17.6297 75.4016 19.7182C73.5213 21.8066 70.9498 22.8373 67.687 22.8373H60.083V1.13916ZM65.1708 5.15331V18.7689H67.2999C69.1801 18.7689 70.5903 18.0908 71.5028 16.7076C72.4153 15.3243 72.8853 13.6969 72.8853 11.8255C72.8853 10.5236 72.6365 9.30308 72.1111 8.19105C71.5858 7.07902 70.9498 6.29246 70.1756 5.83138C69.4013 5.37029 68.4612 5.15331 67.3552 5.15331H65.1708Z" fill="#0E556B"/>
<path d="M63.9818 1.13916H70.7286C73.4937 1.13916 75.5399 1.51888 76.8671 2.25119C78.1943 2.9835 79.4386 4.1769 80.4894 5.80426C81.5401 7.43161 82.0931 9.46581 82.0931 11.934C82.0931 15.026 81.153 17.6297 79.3004 19.7182C77.4201 21.8066 74.8486 22.8373 71.5858 22.8373H63.9818V1.13916V1.13916ZM69.0696 5.15331V18.7689H71.1987C73.0789 18.7689 74.4891 18.0908 75.4016 16.7076C76.3141 15.3243 76.7841 13.6969 76.7841 11.8255C76.7841 10.5236 76.5353 9.30308 76.0099 8.19105C75.4846 7.07902 74.8486 6.29246 74.0744 5.83138C73.3001 5.37029 72.36 5.15331 71.254 5.15331H69.0696Z" fill="#52C3E6"/>
<path d="M63.9264 17.9552V18.9859C67.051 19.0672 69.346 18.4976 70.0373 18.0366C70.1479 17.9552 70.8391 17.5212 71.1156 17.1144C71.1433 17.0601 71.6686 16.4092 71.6686 16.3821C72.7747 16.6533 73.8807 16.9245 74.9867 17.1686C74.6826 17.5755 74.2402 18.1451 73.6319 18.7146C73.0788 19.2571 72.6088 19.5826 72.1111 19.9351C71.6963 20.2335 71.0603 20.6946 70.1755 21.1557C69.3736 21.5625 68.7377 21.8066 68.1846 22.0236C67.6869 22.2134 67.1892 22.4033 66.5256 22.566C66.3873 22.5932 65.6961 22.8644 64.7006 22.8644C63.1245 22.8644 61.5484 22.8373 60 22.8373V17.9552H63.9264Z" fill="#0E556B"/>
</g>
<defs>
<clipPath id="clip0_525_217">
<rect width="121" height="23" fill="white"/>
</clipPath>
</defs>
</svg>
