<svg width="36" height="36" viewBox="0 0 36 36" fill="none" xmlns="http://www.w3.org/2000/svg">
<path d="M29.2629 18.517C28.5442 18.517 27.9281 19.0996 27.9281 19.8536V32.6665H2.63526V7.34848H16.4626C17.1814 7.34848 17.7975 6.76585 17.7975 6.0123C17.7975 5.25875 17.2159 4.67612 16.4626 4.67612H2.63526C1.1637 4.67612 0 5.87549 0 7.31439V32.632C0 34.1049 1.19777 35.2698 2.63526 35.2698H27.9281C29.3996 35.2698 30.5633 34.0709 30.5633 32.632V19.8187C30.5978 19.0992 29.9817 18.517 29.2629 18.517Z" fill="#52C3E6"/>
<path d="M34.4994 3.68303L31.5903 0.7707C30.5637 -0.2569 28.8865 -0.2569 27.8254 0.7707L13.2453 15.3651C13.1427 15.4678 13.0401 15.6051 13.006 15.7419L9.30964 24.4094C9.10398 24.8889 9.24109 25.3688 9.54894 25.7111C9.85679 26.0537 10.3703 26.1564 10.8493 25.9506L19.5083 22.2851C19.6454 22.2165 19.7821 22.1479 19.8847 22.0452L34.499 7.41666C35.526 6.38906 35.526 4.71063 34.4994 3.68303ZM18.208 19.9559L13.1427 22.1142L15.2989 17.044L25.5321 6.80079L28.4416 9.71268L18.208 19.9559ZM32.6169 5.53279L30.324 7.82796L27.415 4.91606L29.7079 2.6209L32.6169 5.53279Z" fill="#52C3E6"/>
</svg>
