<svg width="37" height="41" viewBox="0 0 37 41" fill="none" xmlns="http://www.w3.org/2000/svg">
<path d="M35.4489 31.7912C33.5088 31.7912 31.3485 28.5849 31.3485 23.983V16.5083C31.3485 9.99772 26.4033 4.62064 20.0489 3.8576V1.53764C20.0484 0.688169 19.3549 0 18.4989 0C17.6429 0 16.9494 0.688169 16.9494 1.53764V3.85815C10.5912 4.62064 5.64814 9.99772 5.64814 16.5083V23.983C5.64814 28.5832 3.4873 31.7912 1.54948 31.7912C0.693466 31.7912 0 32.4799 0 33.3288C0 34.1778 0.693466 34.8665 1.54948 34.8665H11.4033C11.9049 38.3773 14.9284 40.9901 18.5017 41C22.121 41 25.0974 38.325 25.5978 34.8665H35.4538C36.3093 34.8654 37.0022 34.1761 37.0011 33.3266C36.9989 32.4777 36.3043 31.7901 35.4489 31.7912ZM8.74654 23.9846V16.5083C8.74654 11.1704 13.1215 6.83049 18.4989 6.83049C23.8763 6.83049 28.249 11.1726 28.249 16.5083V23.983C28.249 27.0803 29.0673 29.8274 30.3977 31.7912H6.59791C7.92659 29.8274 8.74654 27.0803 8.74654 23.9846ZM18.4989 37.9269C16.6315 37.9203 15.0044 36.6634 14.5406 34.8681H22.4572C21.9928 36.6629 20.3663 37.9198 18.4989 37.9269Z" fill="#52C3E6"/>
</svg>
