<svg width="27" height="27" viewBox="0 0 27 27" fill="none" xmlns="http://www.w3.org/2000/svg">
<path d="M11.2648 2.1122C15.9466 2.11986 19.8622 5.6721 20.3234 10.3313C20.785 14.9905 17.6424 19.2417 13.0529 20.1674C8.46383 21.0926 3.91901 18.3917 2.53851 13.918C1.15801 9.44428 3.39021 4.65237 7.70274 2.83073C8.82969 2.35426 10.0413 2.10965 11.2648 2.1122ZM11.2648 0C5.04384 0 0 5.04333 0 11.2646C0 17.4855 5.04384 22.5293 11.2648 22.5293C17.4858 22.5293 22.5296 17.486 22.5296 11.2646C22.5296 5.04333 17.4862 0 11.2648 0ZM25.9445 27C25.6642 27.0004 25.3953 26.889 25.1979 26.6903L19.8469 21.3394C19.447 20.925 19.4526 20.2661 19.8597 19.8585C20.2672 19.451 20.9258 19.4454 21.3397 19.8457L26.6907 25.1967C26.9928 25.4987 27.083 25.9526 26.9196 26.3474C26.7567 26.7422 26.3717 27 25.9445 27Z" fill="#5AC9E8"/>
</svg>
