<svg width="69" height="72" viewBox="0 0 69 72" fill="none" xmlns="http://www.w3.org/2000/svg">
<path d="M0 0L19.1325 18.7794H34.9414C34.9414 18.7794 50.8844 20.9983 58.188 32.7365C58.188 32.7365 63.7673 41.3434 62.3066 57.1257C62.3066 57.1257 72.2681 43.9514 67.886 27.3862C63.5038 10.8257 49.4191 1.95484 36.9337 0H0Z" fill="url(#paint0_linear_16_16)"/>
<path d="M38.0478 19.5623C38.0478 19.5623 50.2835 22.8234 50.1541 36.1274C50.0247 49.4314 34.1464 66.1262 20.2188 71.9954H36.3559C36.3559 71.9954 50.1541 72.6485 62.2558 57.1257C62.2558 57.1257 64.9877 39.5183 56.2697 29.8645C47.5516 20.2108 38.0478 19.5623 38.0478 19.5623Z" fill="url(#paint1_linear_16_16)"/>
<path d="M20.2188 53.2994H35.4037C35.4037 53.2994 42.4299 53.2994 47.6395 45.8228C47.6395 45.8228 40.6133 63.3885 20.2188 71.9074V53.2994Z" fill="url(#paint2_linear_16_16)"/>
<defs>
<linearGradient id="paint0_linear_16_16" x1="11.3372" y1="1.69584" x2="68.887" y2="38.8914" gradientUnits="userSpaceOnUse">
<stop stop-color="#277BA9"/>
<stop offset="1" stop-color="#5BCAE8"/>
</linearGradient>
<linearGradient id="paint1_linear_16_16" x1="53.4211" y1="28.3175" x2="38.0254" y2="73.9179" gradientUnits="userSpaceOnUse">
<stop stop-color="#235E87"/>
<stop offset="0.354167" stop-color="#2C95C9"/>
<stop offset="0.6024" stop-color="#2DA0D7"/>
<stop offset="0.7462" stop-color="#2DA6DF"/>
<stop offset="1" stop-color="#5BCAE8"/>
</linearGradient>
<linearGradient id="paint2_linear_16_16" x1="37.8329" y1="47.3015" x2="19.5137" y2="66.6019" gradientUnits="userSpaceOnUse">
<stop stop-color="#1E456A"/>
<stop offset="0.640625" stop-color="#47A0C1"/>
<stop offset="1" stop-color="#5AC9E8"/>
</linearGradient>
</defs>
</svg>
